<?xml version="1.0" encoding="utf-8"?>
<!-- Generator: Adobe Illustrator 22.1.0, SVG Export Plug-In . SVG Version: 6.00 Build 0)  -->
<svg version="1.1" id="Layer_1" xmlns="http://www.w3.org/2000/svg" xmlns:xlink="http://www.w3.org/1999/xlink" x="0px" y="0px"
	 viewBox="0 0 409.5 90" style="enable-background:new 0 0 409.5 90;" xml:space="preserve">
<style type="text/css">
	.st0{fill:#323232;}
	.st1{fill:#18CDB6;}
</style>
<title>logo black</title>
<g id="Layer_2_1_">
	<g id="Layer_1-2">
		<path class="st0" d="M125,73.2c-9.9,0-17.3-5.1-17.3-10.6v-6.1h0.5c2.9,2.7,9.8,5.1,16.2,5.1c6.6,0,9.8-1.9,9.8-5.9
			c0-3.1-1.9-4.6-11.2-5.9c-11.4-1.6-16.9-6.1-16.9-14.3c0-10.1,9.1-18.7,22.9-18.7c12.2,0,17.2,6.3,17.2,11.5v5.1h-0.5
			c-2.8-2.8-9-5-15.4-5c-8.2,0-10.8,2.5-10.8,6c0,2.7,1.6,3.8,10.8,5.3c11.2,1.8,17.2,6.7,17.2,15.3C147.5,66.4,139.5,73.2,125,73.2
			z"/>
		<path class="st0" d="M163.4,89.5c-5,0-9.4-3.3-9.4-8.3v-2.6l7.6-0.5c4.9-0.3,6.6-2.3,9.5-9.9C164,57.5,153.8,30.7,152,18h7.1
			c3.8-0.1,7.1,2.6,7.8,6.3c2.1,10.8,5.7,21.3,10.8,31.1C182.1,45.3,187,29,188.2,18h5.8c4.3,0,6.3,1.9,6.3,6.3
			c0,5.7-9.4,30.3-11.9,36.1C178.4,84,173.1,89.5,163.4,89.5z"/>
		<path class="st0" d="M280.9,72c-7.3,0-10.2-3.4-10.2-9.8V41.4c0-8.9-4-12.7-9.9-12.7c-5.4,0-9.1,3.8-9.1,11.2V72h-3.6
			c-5.9,0-9.8-3.4-9.8-9.8V41.4c0-8.9-4.1-12.7-10-12.7c-5.2,0-9.1,4.1-9.1,11.5V72h-3.6c-5.5,0-9.7-3.6-9.7-9.8V41.3
			c0-14.7,7.7-24.5,24-24.5c6.5-0.1,12.6,3.1,16.4,8.4c3.4-5.3,9.2-8.4,15.5-8.4c12.4,0,22.4,7.5,22.4,22.8V72H280.9z"/>
		<path class="st0" d="M320.9,73.2c-5.6,0-10.8-3.1-13.6-8V89h-4.2c-5.1,0.1-9.3-3.9-9.4-8.9c0-0.1,0-0.2,0-0.4V47.1
			c0-17.9,8-30.3,27-30.3c14.3,0,24.5,13,24.5,26.6C345.2,60.7,336.6,73.2,320.9,73.2z M318.6,28.7c-7.4,0-11.5,6.4-11.5,15.7
			c0,10.8,5.3,16.9,13.3,16.9c6.5,0,11-5.8,11-14.4C331.4,34.2,327.2,28.7,318.6,28.7L318.6,28.7z"/>
		<path class="st0" d="M371.1,72.5c-11.1,0-17.1-5.9-17.1-16.8V0h3.8c6.7,0,9.6,3.9,9.6,9v45.4c0,5.4,2.8,7.1,9.1,7.1h3.6v2.9
			C380.1,70.2,377,72.5,371.1,72.5z"/>
		<path class="st0" d="M392,14c-3.8,0-6.9-3.2-6.9-7s3-7,6.9-7c0,0,0,0,0.1,0c3.8,0,7,3.1,7,6.9C399,10.8,395.9,14,392,14z
			 M401.5,72.6c-10.4,0-16.1-5.9-16.1-16.8V19.2h3.8c6,0,9.6,3.2,9.6,10v25.2c0,5.4,2.3,7.1,8.2,7.1h2.5v2.9
			C409.5,70.2,407.2,72.5,401.5,72.6L401.5,72.6z"/>
		<path class="st1" d="M24.5,76.3c9.4,2.8,19.5,2.5,28.7-0.9c1.8-0.7,3.5-1.5,5.1-2.6c7.7-5,10.7-15.3,8-24
			c-2.4-7.7-11-12.3-21-11.3c-0.6,0.1-1.1,0.6-1.1,1.2c0,0.4-0.1,0.9-0.1,1.3c0,0.7-0.7,1.3-1.4,1.3c-0.2,0-0.4-0.1-0.6-0.2l-11.3-6
			c-0.2-0.1-0.4-0.2-0.5-0.4c-0.4-0.6-0.3-1.4,0.3-1.8l9.4-7.8c0.6-0.5,1.4-0.4,1.9,0.2c0.1,0.1,0.2,0.2,0.2,0.3
			c0.4,0.9,0.6,1.5,0.7,1.7c3.3-0.3,6.6-0.2,9.9,0.3c1.4,0.2,2.7,0.4,3.9,0.7l1.6,0.4C69.7,31.6,78.7,40.9,80.4,53
			c1.1,8.5-1.6,17.1-7.4,23.4l0,0c-1.2,1.3-2.5,2.4-3.9,3.6c-6.4,5.2-14.2,8.6-22.4,9.7c-15.1,1.9-30.2-3.8-40.3-15.3
			c-3.5-4-5.7-9-6.3-14.4c-0.1-1.6,1-2.8,2.1-1.1c1,1.5,2,3,3,4.3C10,69.4,16.8,74.1,24.5,76.3z"/>
		<path class="st1" d="M56.4,13.7C47,10.9,37,11.2,27.8,14.6c-1.8,0.7-3.5,1.5-5.1,2.6c-7.7,5-10.7,15.3-8,24
			c2.4,7.7,11,12.3,21,11.3c0.6-0.1,1.2-0.6,1.2-1.2c0-0.4,0.1-0.9,0.1-1.3c0-0.7,0.7-1.3,1.4-1.3c0.2,0,0.4,0.1,0.6,0.2l11.3,6
			c0.2,0.1,0.4,0.2,0.5,0.4c0.4,0.6,0.2,1.4-0.4,1.8L41,64.8c-0.6,0.5-1.4,0.4-1.9-0.2c-0.1-0.1-0.2-0.2-0.2-0.3
			c-0.4-0.9-0.6-1.5-0.7-1.7c-3.3,0.3-6.6,0.2-9.9-0.3c-1.4-0.2-2.7-0.4-3.9-0.7l-1.6-0.3C11.4,58.4,2.3,49.1,0.7,37.1
			C-0.5,28.6,2.3,20,8.1,13.7l0,0c1.2-1.3,2.5-2.5,3.9-3.6c6.4-5.2,14.2-8.6,22.4-9.7c15.1-1.9,30.2,3.9,40.2,15.4
			c3.5,4,5.7,9,6.3,14.4c0.1,1.6-1,2.7-2.1,1.1c-1-1.5-2-3-3-4.4C70.9,20.6,64.1,16,56.4,13.7z"/>
	</g>
</g>
</svg>
